<?xml version="1.0" encoding="utf-8"?>
<!-- Generator: Adobe Illustrator 23.0.6, SVG Export Plug-In . SVG Version: 6.00 Build 0)  -->
<svg version="1.1" id="Слой_1" xmlns="http://www.w3.org/2000/svg" xmlns:xlink="http://www.w3.org/1999/xlink" x="0px" y="0px"
	 viewBox="0 0 128 128" style="enable-background:new 0 0 128 128;" xml:space="preserve">
<style type="text/css">
	.st0{fill:#232323;}
</style>
<path class="st0" d="M36.96,39.68L10.69,79.33c0,0,0,0,0,0c0,0,0,0,0,0l0,0.01l0,0c-0.74,1.24,0.13,3.14,1.96,4.25
	c1.83,1.12,3.93,1.02,4.68-0.21c0,0,0-0.01,0-0.01l0,0l22.96-41.68L63.25,0.01L36.96,39.68z"/>
<path class="st0" d="M63.58-0.13L45.33,57.18l-18.25,57.31l0.02,0c-0.01,0.02-0.03,0.05-0.04,0.07c-0.26,1.52,6.72,3.97,15.58,5.48
	c8.71,1.48,15.99,1.48,16.48,0.04l0.02,0l0-0.05c0-0.01,0.01-0.01,0.01-0.02c0-0.02-0.01-0.04-0.01-0.07l2.21-59.96L63.58-0.13z"/>
<path class="st0" d="M75.17,105.41l-5.79-52.7l-5.79-52.7l0.64,53.02l0.64,53.02l0.03,0c0,0.01-0.02,0.02-0.01,0.02
	c0.02,0.38,2.35,0.54,5.18,0.36c2.78-0.18,5.01-0.63,5.08-1.01L75.17,105.41z"/>
<path class="st0" d="M118.88,107.98c0-0.01-0.01-0.02-0.01-0.03l0,0L91.44,54.11L64,0.26l18.07,57.67l18.05,57.6
	c0.01,0.01,0.01,0.03,0.01,0.04c0,0,0,0.01,0.01,0.01l0.01,0.02l0,0c0.83,1.93,5.64,1.81,10.79-0.28
	C116.12,113.22,119.68,109.94,118.88,107.98z"/>
<g>
	<path class="st0" d="M64.04,0.23l27.74,50.89l6.94,12.72l6.86,12.76c4.49,8.55,9,17.1,13.32,25.74l-0.09,0.05
		c-4.82-8.37-9.46-16.85-14.11-25.31l-6.85-12.77L91.08,51.5L63.96,0.28L64.04,0.23z"/>
</g>
<g>
	<path class="st0" d="M64.05,0.25l6.7,48.52l1.68,12.13l1.59,12.14c0.97,8.11,1.95,16.21,2.73,24.34l-0.1,0.01
		c-1.34-8.06-2.47-16.14-3.62-24.22l-1.58-12.14l-1.49-12.15l-6-48.61L64.05,0.25z"/>
</g>
<g>
	<path class="st0" d="M63.63,0.03L45.1,52.29l-4.63,13.07L35.77,78.4c-3.23,8.66-6.44,17.33-9.85,25.92l-0.09-0.03
		c2.87-8.79,5.95-17.51,9.01-26.23l4.72-13.04l4.8-13.01L63.54-0.01L63.63,0.03z"/>
</g>
<g>
	<path class="st0" d="M63.63,0.04L38.03,37.26c-4.27,6.2-8.49,12.43-12.86,18.57c-4.39,6.12-8.76,12.25-13.31,18.25l-0.08-0.06
		c4.08-6.33,8.33-12.54,12.57-18.77c4.26-6.21,8.66-12.31,13.02-18.45L63.54-0.02L63.63,0.04z"/>
</g>
</svg>
