<?xml version="1.0" encoding="utf-8"?>
<!-- Generator: Adobe Illustrator 23.0.6, SVG Export Plug-In . SVG Version: 6.00 Build 0)  -->
<svg version="1.1" id="Слой_1" xmlns="http://www.w3.org/2000/svg" xmlns:xlink="http://www.w3.org/1999/xlink" x="0px" y="0px"
	 viewBox="0 0 128 128" style="enable-background:new 0 0 128 128;" xml:space="preserve">
<style type="text/css">
	.st0{fill:#232323;}
</style>
<polygon class="st0" points="19.94,45.83 21.75,48.06 18.91,48.51 16.08,48.96 17.1,46.28 18.13,43.59 "/>
<polygon class="st0" points="70.31,7.27 74.04,6.38 72.94,10.05 71.84,13.73 69.21,10.94 66.57,8.15 "/>
<polygon class="st0" points="110.35,26.23 112.83,22.65 114.69,26.58 116.55,30.51 112.22,30.16 107.88,29.8 "/>
<polygon class="st0" points="107.56,70.9 110.17,70.83 108.92,73.12 107.68,75.41 106.32,73.19 104.95,70.97 "/>
<polygon class="st0" points="60.83,108.32 64.22,105.6 64.88,109.9 65.55,114.2 61.49,112.62 57.43,111.05 "/>
<polygon class="st0" points="97.18,113.04 100.71,115.59 96.74,117.37 92.77,119.15 93.21,114.82 93.66,110.49 "/>
<polygon class="st0" points="35.39,26.65 35.51,29.12 33.32,27.98 31.13,26.85 33.21,25.52 35.28,24.19 "/>
<path class="st0" d="M116.06,60.96l-18.71-8.7l8.49-22.76L86.41,32.6l-7.33-22.55L62.54,28.12L46,10.05l2.03,21.63L19.24,29.5
	l10.99,18.8L9.02,60.96l27.02,5.67L19.24,92.41l20.09-5.61L46,111.86l19.97-15.82l13.11,15.82l3.51-20.57l23.26,1.13l-8.09-22.76
	L116.06,60.96z M39.67,54l2.08-1.33l0.11,2.46l0.11,2.46l-2.19-1.13l-2.19-1.13L39.67,54z M47.26,108.04
	c-1.13-4.39-2.23-8.78-3.31-13.18c-0.55-2.2-1.15-4.38-1.58-6.6c-0.4-2.21-0.82-4.41-1.04-6.65c-1.35,0.87-2.76,1.59-4.18,2.27
	c-1.45,0.69-2.96,1.22-4.46,1.8c-2.98,1.18-5.97,2.34-8.97,3.47l-0.04-0.09c2.89-1.4,5.79-2.77,8.7-4.11
	c1.45-0.68,2.88-1.42,4.38-1.99c1.5-0.57,3.01-1.1,4.6-1.48l0.02,0.05l0.05-0.01c0.77,2.15,1.34,4.34,1.92,6.53
	c0.56,2.19,0.94,4.43,1.39,6.65c0.9,4.44,1.78,8.88,2.63,13.33L47.26,108.04z M55.47,73.38l-3.97,1.78l0.44-4.33l0.44-4.33
	l3.53,2.55l3.53,2.55L55.47,73.38z M57.43,40.99l-2.84,0.45l1.03-2.68l1.03-2.68l1.81,2.23l1.81,2.23L57.43,40.99z M70.19,42.12
	l2.08-1.33l0.11,2.46l0.11,2.46l-2.19-1.13l-2.19-1.13L70.19,42.12z M73.64,88.99l-0.75,2.35l-1.66-1.82l-1.66-1.82l2.41-0.53
	l2.41-0.53L73.64,88.99z M80.15,26.81c-1.07-3.31-2.07-6.64-2.79-10.07c1.46,3.18,2.64,6.45,3.74,9.75
	c1.07,3.31,2.08,6.64,2.79,10.07c3.04-1.03,6.14-1.76,9.26-2.42c3.12-0.63,6.26-1.18,9.46-1.44c-3.04,1.03-6.14,1.76-9.26,2.41
	c-3.12,0.63-6.26,1.18-9.46,1.44C82.43,33.38,81.25,30.11,80.15,26.81z M94.13,61.71L92.89,64l-1.36-2.22l-1.36-2.22l2.61-0.07
	l2.61-0.07L94.13,61.71z"/>
<polygon class="st0" points="35.68,10.77 39.21,13.32 35.24,15.1 31.27,16.88 31.71,12.56 32.15,8.23 "/>
<polygon class="st0" points="111.95,41.14 116.14,44.17 111.42,46.29 106.7,48.4 107.23,43.26 107.75,38.11 "/>
<polygon class="st0" points="14.97,97.09 15.08,101.44 11.26,99.36 7.44,97.28 11.15,95.01 14.86,92.74 "/>
</svg>
