<?xml version="1.0" encoding="utf-8"?>
<!-- Generator: Adobe Illustrator 23.0.6, SVG Export Plug-In . SVG Version: 6.00 Build 0)  -->
<svg version="1.1" id="Слой_1" xmlns="http://www.w3.org/2000/svg" xmlns:xlink="http://www.w3.org/1999/xlink" x="0px" y="0px"
	 viewBox="0 0 128 128" style="enable-background:new 0 0 128 128;" xml:space="preserve">
<style type="text/css">
	.st0{fill:#232323;}
	.st1{fill:none;stroke:#232323;stroke-width:8;stroke-miterlimit:10;}
	.st2{fill-rule:evenodd;clip-rule:evenodd;fill:#232323;}
</style>
<g>
	<path class="st0" d="M64,31.71c22.78,0,41.31,18.53,41.31,41.31S86.78,114.34,64,114.34S22.69,95.8,22.69,73.02
		S41.22,31.71,64,31.71 M64,23.66c-27.26,0-49.37,22.1-49.37,49.37s22.1,49.37,49.37,49.37s49.37-22.1,49.37-49.37
		S91.26,23.66,64,23.66L64,23.66z"/>
</g>
<g>
	<line class="st1" x1="64" y1="19.07" x2="64" y2="11.75"/>
</g>
<line class="st1" x1="54.19" y1="8.32" x2="73.81" y2="8.32"/>
<polygon class="st2" points="116.69,26.91 123.02,33.24 114.37,35.56 105.71,37.88 108.03,29.23 110.35,20.57 "/>
<g>
	<g>
		<path class="st0" d="M86.68,53.18c-5.47-4.51-12.04-6.98-18.56-7.29c-6.52-0.27-12.97,1.64-18.21,5.33
			c-5.24,3.67-9.26,9.08-11.13,15.4c-1.95,6.3-1.75,13.35,0.56,20.18c-4.49-5.68-6.41-13.64-5.08-21.22
			c0.68-3.77,2.02-7.51,4.16-10.79c2.09-3.3,4.85-6.18,8.04-8.45c6.36-4.56,14.52-6.57,22.18-5.35l2.83,0.58l2.74,0.88
			c1.8,0.63,3.51,1.51,5.12,2.49c3.2,2,5.95,4.64,8.01,7.65L86.68,53.18z"/>
		<g>
			
				<rect x="69.4" y="50.23" transform="matrix(0.7517 -0.6596 0.6596 0.7517 -13.3148 70.4949)" class="st0" width="35.1" height="5.4"/>
		</g>
	</g>
</g>
</svg>
