<?xml version="1.0" encoding="utf-8"?>
<!-- Generator: Adobe Illustrator 23.0.6, SVG Export Plug-In . SVG Version: 6.00 Build 0)  -->
<svg version="1.1" id="Слой_1" xmlns="http://www.w3.org/2000/svg" xmlns:xlink="http://www.w3.org/1999/xlink" x="0px" y="0px"
	 viewBox="0 0 128 128" style="enable-background:new 0 0 128 128;" xml:space="preserve">
<style type="text/css">
	.st0{fill:#232323;}
	.st1{fill:none;stroke:#FFFFFF;stroke-miterlimit:10;}
	.st2{fill:none;}
	.st3{fill:none;stroke:#232323;stroke-miterlimit:10;}
</style>
<path class="st0" d="M74.18,23.65H45.3l11.56,3.9l-30.55,3.81L44.19,37L9.3,45.79l25.63,8.79L0,59.64l33.63,8.11l-20.97,8.11
	l27.09,9.2c0.1,0.17,0.21,0.33,0.32,0.5l-19.7,4.94l28.88,5.34l-9.89,6.53l30.3,1.73c1.48,0.17,2.99,0.26,4.52,0.26
	c22.29,0,40.35-18.07,40.35-40.35C114.53,41.71,96.46,23.65,74.18,23.65z M82.9,39.46c2.39,0.23,4.79,0.41,7.17,0.76
	c2.37,0.38,4.75,0.73,7.1,1.3l-0.01,0.1c-2.42,0-4.81-0.22-7.21-0.41c-2.39-0.22-4.76-0.62-7.14-0.96
	c-4.76-0.66-9.51-1.35-14.27-2.06l0.01-0.1C73.33,38.52,78.12,38.98,82.9,39.46z M72.28,50.55c-5.88-0.79-11.76-1.62-17.64-2.47
	l0.01-0.1c5.91,0.56,11.82,1.15,17.72,1.77c2.95,0.3,5.91,0.54,8.85,0.96c2.94,0.44,5.87,0.87,8.79,1.51L90,52.32
	c-2.98-0.07-5.94-0.35-8.89-0.61C78.16,51.42,75.22,50.95,72.28,50.55z M73.55,61.81l0,0.1c-1.56,0.26-3.11,0.36-4.67,0.42
	c-1.56,0.05-3.11-0.07-4.66-0.13c-3.11-0.11-6.22-0.25-9.33-0.42l0-0.1c3.11-0.12,6.22-0.22,9.33-0.28
	c1.56-0.04,3.11-0.14,4.67-0.07C70.44,61.41,72,61.53,73.55,61.81z M77.62,77.39c-4.88,1.32-9.77,2.62-14.67,3.88l-0.03-0.1
	c4.82-1.55,9.64-3.06,14.47-4.56c2.41-0.76,4.81-1.57,7.26-2.21c2.45-0.62,4.9-1.25,7.41-1.68l0.03,0.1
	c-2.35,0.98-4.76,1.75-7.16,2.54C82.53,76.14,80.07,76.74,77.62,77.39z M101.68,76.06c-1.02,1.23-2.17,2.34-3.27,3.49
	c-2.2,2.31-4.42,4.61-6.66,6.89l-0.07-0.07c2.02-2.47,4.07-4.92,6.14-7.35c1.03-1.22,2.01-2.48,3.12-3.63
	c1.12-1.14,2.26-2.26,3.53-3.26l0.07,0.07C103.68,73.57,102.69,74.83,101.68,76.06z"/>
<g>
	<path class="st0" d="M73.98,121.49c6.78-0.78,13.12-3.18,18.49-6.88c5.42-3.63,9.9-8.46,13.48-13.82
		c7.12-10.8,10.58-23.74,10.65-36.6c0.02-3.22-0.18-6.44-0.61-9.64c-0.4-3.2-1.04-6.36-1.89-9.46c-1.69-6.22-4.32-12.17-7.78-17.62
		c-1.74-2.72-3.76-5.25-5.95-7.63c-2.19-2.38-4.65-4.53-7.33-6.38c-5.31-3.79-11.6-6.3-18.36-7.21c6.81-0.66,13.9,1.01,20.16,4.25
		c3.12,1.65,6.05,3.69,8.74,6.01c2.69,2.32,5.08,4.98,7.24,7.79c4.35,5.64,7.56,12.12,9.7,18.9c1.07,3.4,1.84,6.88,2.37,10.4
		c0.51,3.52,0.76,7.08,0.76,10.63c-0.05,7.11-1.16,14.22-3.35,20.99c-2.2,6.76-5.48,13.21-9.91,18.79c-2.21,2.79-4.62,5.42-7.35,7.7
		c-2.73,2.28-5.68,4.28-8.83,5.88C87.89,120.74,80.78,122.28,73.98,121.49z"/>
</g>
<g>
	<path class="st0" d="M88.08,23.02l-7-2.92l-6.95-3.01c-2.31-1.02-4.7-1.88-6.91-3.1c-2.22-1.22-4.4-2.5-6.43-4.1l0.09-0.18
		c2.51,0.6,4.88,1.5,7.21,2.47c2.34,0.96,4.5,2.29,6.74,3.46l6.69,3.55l6.65,3.64L88.08,23.02z"/>
</g>
<g>
	<path class="st0" d="M81.57,110.31l-8.63,2.29l-8.65,2.2c-2.89,0.72-5.74,1.61-8.68,2.1c-2.93,0.5-5.89,0.93-8.91,1.02l-0.04-0.2
		c2.79-1.17,5.65-2.02,8.53-2.78c2.88-0.78,5.84-1.16,8.76-1.71l8.78-1.61l8.8-1.51L81.57,110.31z"/>
</g>
<g>
	<path class="st0" d="M65.1,18.2c-1.98,0.01-3.96-0.03-5.95-0.04l-5.94-0.14c-1.98-0.06-3.97,0.06-5.93-0.24
		c-1.96-0.28-3.92-0.64-5.85-1.33l0.01-0.2c2.01-0.41,4-0.47,5.98-0.46c1.98,0,3.94,0.4,5.9,0.63l5.9,0.73
		c1.96,0.28,3.93,0.53,5.89,0.83L65.1,18.2z"/>
</g>
</svg>
