<?xml version="1.0" encoding="utf-8"?>
<!-- Generator: Adobe Illustrator 23.0.6, SVG Export Plug-In . SVG Version: 6.00 Build 0)  -->
<svg version="1.1" id="Слой_1" xmlns="http://www.w3.org/2000/svg" xmlns:xlink="http://www.w3.org/1999/xlink" x="0px" y="0px"
	 viewBox="0 0 128 128" style="enable-background:new 0 0 128 128;" xml:space="preserve">
<style type="text/css">
	.st0{display:none;fill:#D24A43;}
	.st1{fill:#232323;}
	.st2{fill:none;}
</style>
<path class="st0" d="M70.34,86.78c0.03,0,0.07,0,0.13,0.01c0.01,0,0.06,0.01,0.1,0.04c0.03,0.02,0.03,0.04,0.05,0.06l1.75,0.75v0
	c1.86,0,3.72,0,5.58,0c0.27,0,0.54,0,0.81,0c0.02,0,0.05,0,0.08,0.01c0.01,0,0.04,0.01,0.06,0.03c0.04,0.03,0.06,0.06,0.06,0.1v0.27
	c6.75,0.1,22.23,0.59,22.4,3.1c0.17,2.51-15.58,3.17-22.4,3.34v0.3c0,0.08-0.09,0.14-0.2,0.14h-0.81h-5.58v0l-1.75,0.75
	c-0.05,0.06-0.14,0.11-0.28,0.11H40.19h-0.86h-0.11c-0.12,0-0.22-0.08-0.22-0.17v-0.2h-1.09h-0.49v0.29c0,0.04-0.02,0.08-0.04,0.08
	H36.9l0,0h-0.54l0,0h-0.49c-0.02,0-0.04-0.04-0.04-0.08v-8.85c0-0.04,0.02-0.08,0.04-0.08c0.02,0,0.04,0,0.06,0c0,0,0,0,0,0
	c0.46,0,0.92,0,1.39,0c0,0,0,0,0,0c0.02,0,0.05,0,0.07,0c0,0,0.01,0,0.02,0.01c0,0,0.01,0.01,0.01,0.02
	c0.01,0.01,0.01,0.03,0.01,0.06v0.29h0.49h1.09v-0.2c0-0.1,0.1-0.17,0.22-0.17c0.04,0,0.07,0,0.11,0c0.29,0,0.57,0,0.86,0
	C50.24,86.78,60.29,86.78,70.34,86.78 M70.34,83.78H40.19h-0.86h-0.11c-0.18,0-0.35,0.01-0.52,0.04l-0.03-0.03l-1.28-0.01h-0.07
	l-1.39,0l-0.07,0c-1.67,0-3.04,1.38-3.04,3.08v8.85c0,1.7,1.36,3.08,3.04,3.08h0.49l0.54,0l0.49,0c0.31,0,0.61-0.05,0.9-0.14
	c0.3,0.09,0.61,0.14,0.94,0.14h0.11h0.86h30.15c0.63,0,1.23-0.17,1.75-0.48l0.9-0.39h4.96h0.81c0.62,0,1.21-0.18,1.7-0.48
	c20.03-0.59,21.96-2.72,22.91-3.75c0.71-0.77,1.06-1.75,0.99-2.75c-0.24-3.49-4.38-4.56-11.44-5.23c-4.16-0.39-8.89-0.56-12.52-0.64
	c-0.23-0.13-0.47-0.24-0.73-0.31c-0.28-0.08-0.59-0.13-0.91-0.13h-0.81h-4.96l-0.82-0.35c-0.07-0.04-0.14-0.08-0.2-0.12
	c-0.25-0.13-0.53-0.24-0.83-0.3C70.86,83.81,70.6,83.78,70.34,83.78L70.34,83.78z"/>
<circle class="st1" cx="64" cy="64" r="16.02"/>
<g>
	<g>
		<path class="st1" d="M80.16,44.77c-5.56-3.16-11.76-4.25-17.51-3.24c-5.75,0.97-10.95,3.99-14.5,8.4
			c-3.56,4.4-5.43,10.11-5.18,15.94c0.22,5.83,2.58,11.66,6.82,16.45c-2.81-1.56-5.21-3.91-7.08-6.67
			c-1.82-2.78-3.12-5.99-3.65-9.37c-0.55-3.37-0.37-6.89,0.52-10.24c0.88-3.36,2.51-6.53,4.69-9.25c2.2-2.7,4.97-4.95,8.07-6.51
			c3.09-1.57,6.5-2.47,9.91-2.64c3.41-0.18,6.82,0.41,9.92,1.61C75.24,40.49,78.04,42.35,80.16,44.77z"/>
	</g>
	<path class="st2" d="M49.79,82.3c10.3,8.33,25.62,6.71,33.95-3.58c8.33-10.3,6.71-25.62-3.58-33.95"/>
</g>
<g>
	<g>
		<path class="st1" d="M76.58,92.17c6.83-4.31,11.74-10.74,13.97-17.93c2.22-7.19,1.75-15-1.37-21.66
			C86.1,45.9,80.44,40.5,73.52,37.56c-6.93-2.93-15.01-3.34-22.71-0.91c3.4-2.19,7.41-3.51,11.55-4.01
			c4.15-0.45,8.45-0.05,12.5,1.26c4.07,1.26,7.88,3.43,11.13,6.27c3.25,2.84,5.9,6.39,7.73,10.31c1.81,3.93,2.81,8.25,2.88,12.56
			c0.07,4.31-0.74,8.62-2.4,12.54c-1.62,3.94-4.09,7.48-7.11,10.36C84.04,88.77,80.44,90.98,76.58,92.17z"/>
	</g>
	<path class="st2" d="M50.81,36.65C35.58,43.72,28.86,62.07,35.93,77.3C43,92.52,61.35,99.24,76.58,92.17"/>
</g>
<g>
	<g>
		<path class="st1" d="M106.68,75.66c2.15-11.48-0.14-23.35-6.11-32.89c-5.94-9.54-15.46-16.68-26.25-19.42
			c-10.76-2.86-22.55-1.26-32.38,4.18c-9.86,5.42-17.64,14.67-21.36,25.74c1.04-5.75,3.43-11.29,6.81-16.18
			c3.42-4.87,7.84-9.09,12.97-12.25c5.1-3.21,10.9-5.29,16.89-6.26c6-0.92,12.19-0.59,18.08,0.9c5.87,1.57,11.44,4.29,16.23,8.03
			c4.76,3.75,8.8,8.41,11.7,13.69c2.93,5.26,4.75,11.1,5.36,17.01C109.19,64.13,108.57,70.13,106.68,75.66z"/>
	</g>
	<path class="st2" d="M20.59,53.27c-6.14,23.62,8.24,48.1,31.85,54.24c23.61,6.14,48.1-8.24,54.24-31.85"/>
</g>
<g>
	<g>
		<path class="st1" d="M31.7,22.44C21.46,31.55,15.19,44.5,14.12,57.82C13,71.14,17.13,84.76,25.62,95
			c8.39,10.32,20.94,17.02,34.22,18.53c13.28,1.54,27.19-2.08,38.13-10.34c-5.08,4.59-11.21,8.04-17.77,10.25
			c-6.58,2.16-13.63,2.99-20.59,2.41c-6.96-0.55-13.81-2.57-20.05-5.78c-6.22-3.24-11.78-7.77-16.26-13.18
			c-4.43-5.46-7.79-11.78-9.75-18.52c-1.94-6.74-2.58-13.85-1.76-20.79c0.79-6.94,2.98-13.69,6.38-19.72
			C21.63,31.87,26.2,26.52,31.7,22.44z"/>
	</g>
	<path class="st2" d="M97.97,103.19c22.15-18.18,25.42-51.36,7.24-73.51C87.03,7.53,53.85,4.26,31.7,22.44"/>
</g>
<g>
	<g>
		<path class="st1" d="M32.1,42.17c-4.56,9.04-5.62,19.28-3.19,28.56c1.24,4.62,3.27,8.99,6.03,12.82
			c2.76,3.83,6.22,7.12,10.19,9.66c3.96,2.53,8.41,4.3,13.04,5.19c4.63,0.91,9.45,0.91,14.17,0.1c9.43-1.69,18.29-6.94,24.59-14.86
			c-2.25,4.54-5.65,8.57-9.72,11.79c-4.1,3.19-8.9,5.58-14.03,6.88c-5.11,1.35-10.54,1.59-15.82,0.76
			c-5.28-0.83-10.4-2.78-14.92-5.65c-4.51-2.9-8.42-6.73-11.38-11.18c-2.96-4.44-5.01-9.47-5.94-14.68
			c-0.97-5.2-0.81-10.56,0.36-15.62C26.7,50.89,28.93,46.12,32.1,42.17z"/>
	</g>
	<path class="st2" d="M96.92,83.63c11.37-17.78,6.1-41.77-11.68-53.14c-17.78-11.37-41.77-6.1-53.14,11.68"/>
</g>
<g>
	<g>
		<path class="st1" d="M101.28,111.74c5.85-5.44,10.69-11.81,14.1-18.85c3.46-7.01,5.51-14.63,6.17-22.32
			c1.3-15.39-3.36-31.1-13.05-42.95C98.97,15.64,84.61,7.76,69.3,5.77c-7.65-0.99-15.54-0.6-23.12,1.3
			c-7.6,1.84-14.86,5.22-21.42,9.78c5.86-5.44,13.01-9.57,20.73-12.16c7.73-2.55,16.03-3.54,24.23-2.83
			c8.21,0.64,16.28,3.08,23.62,6.9c7.33,3.87,13.85,9.27,19.09,15.71c5.17,6.49,9.08,14.01,11.3,21.99
			c2.18,7.99,2.84,16.39,1.73,24.55c-1.04,8.16-3.78,16.06-7.9,23.07C113.39,101.05,107.84,107.17,101.28,111.74z"/>
	</g>
	<path class="st2" d="M24.76,16.84c-26.03,20.99-30.18,59.68-9.19,85.71c20.99,26.03,59.68,30.18,85.71,9.19"/>
</g>
</svg>
