<?xml version="1.0" encoding="utf-8"?>
<!-- Generator: Adobe Illustrator 23.0.6, SVG Export Plug-In . SVG Version: 6.00 Build 0)  -->
<svg version="1.1" id="Слой_1" xmlns="http://www.w3.org/2000/svg" xmlns:xlink="http://www.w3.org/1999/xlink" x="0px" y="0px"
	 viewBox="0 0 128 128" style="enable-background:new 0 0 128 128;" xml:space="preserve">
<style type="text/css">
	.st0{fill:#232323;}
</style>
<g>
	<path class="st0" d="M88.63,4C108.13,4,124,19.87,124,39.37v49.25c0,19.51-15.87,35.37-35.37,35.37H39.37
		C19.87,124,4,108.13,4,88.63V39.37C4,19.87,19.87,4,39.37,4H88.63 M88.63,0H39.37C17.63,0,0,17.63,0,39.37v49.25
		C0,110.37,17.63,128,39.37,128h49.25c21.75,0,39.37-17.63,39.37-39.37V39.37C128,17.63,110.37,0,88.63,0L88.63,0z"/>
</g>
<g>
	<path class="st0" d="M64,4c33.08,0,60,26.92,60,60s-26.92,60-60,60S4,97.08,4,64S30.92,4,64,4 M64,0C28.65,0,0,28.65,0,64
		s28.65,64,64,64s64-28.65,64-64S99.35,0,64,0L64,0z"/>
</g>
<path class="st0" d="M64,8.76L29.33,22.32L64,64l34.67-41.68L64,8.76z M64.48,33.33l-9.99,9.3L37.48,24.03L64,13.95l27.48,10.09
	L80.01,37.48L64.48,33.33z"/>
<path class="st0" d="M64,64l-34.67,41.68L64,119.24l34.67-13.56L64,64z M38.67,102.56L64,75.07l23.33,27.49L64,88.81L38.67,102.56z"
	/>
<rect x="61.76" y="80.87" transform="matrix(-0.7071 0.7071 -0.7071 -0.7071 168.0224 96.6226)" class="st0" width="4.47" height="4.47"/>
</svg>
