<?xml version="1.0" encoding="utf-8"?>
<!-- Generator: Adobe Illustrator 23.0.6, SVG Export Plug-In . SVG Version: 6.00 Build 0)  -->
<svg version="1.1" id="Слой_1" xmlns="http://www.w3.org/2000/svg" xmlns:xlink="http://www.w3.org/1999/xlink" x="0px" y="0px"
	 viewBox="0 0 128 128" style="enable-background:new 0 0 128 128;" xml:space="preserve">
<style type="text/css">
	.st0{fill:#232323;}
	.st1{display:none;fill:#D24A43;}
</style>
<path class="st0" d="M10.92,19.74h0.49c0.02,0,0.04-0.04,0.04-0.08v-0.29h0.49h1.09v0.2c0,0.1,0.1,0.17,0.22,0.17h0.11h0.86h30.15
	c0.13,0,0.23-0.05,0.28-0.11l1.75-0.75v0h5.58h0.81c0.11,0,0.2-0.06,0.2-0.14v-0.3c6.82-0.17,22.57-0.83,22.4-3.34
	c-0.17-2.5-15.65-3-22.4-3.1v-0.27c0-0.04-0.02-0.07-0.06-0.1c-0.03-0.02-0.06-0.03-0.06-0.03c-0.03-0.01-0.06-0.01-0.08-0.01
	c-0.27,0-0.54,0-0.81,0c-1.86,0-3.72,0-5.58,0v0l-1.75-0.75c-0.02-0.02-0.02-0.04-0.05-0.06c-0.04-0.02-0.09-0.03-0.1-0.04
	c-0.05-0.01-0.1-0.01-0.13-0.01c-10.05,0-20.1,0-30.15,0c-0.29,0-0.57,0-0.86,0c-0.04,0-0.07,0-0.11,0c-0.12,0-0.22,0.08-0.22,0.17
	v0.2h-1.09h-0.49V10.8c0-0.02,0-0.04-0.01-0.06c0-0.01-0.01-0.01-0.01-0.02c-0.01-0.01-0.01-0.01-0.02-0.01c-0.02,0-0.05,0-0.07,0
	c0,0,0,0,0,0c-0.46,0-0.92,0-1.39,0c0,0,0,0,0,0c-0.02,0-0.04,0-0.06,0c-0.02,0-0.04,0.04-0.04,0.08v8.85
	c0,0.04,0.02,0.08,0.04,0.08h0.49l0,0L10.92,19.74L10.92,19.74z"/>
<path class="st0" d="M33.01,45.09h0.49c0.02,0,0.04-0.04,0.04-0.08v-0.29h0.49h1.09v0.2c0,0.1,0.1,0.17,0.22,0.17h0.11h0.86h30.15
	c0.13,0,0.23-0.05,0.28-0.11l1.75-0.75v0h5.58h0.81c0.11,0,0.2-0.06,0.2-0.14v-0.3c6.82-0.17,22.57-0.83,22.4-3.34
	c-0.17-2.5-15.65-3-22.4-3.1v-0.27c0-0.04-0.02-0.07-0.06-0.1c-0.03-0.02-0.06-0.03-0.06-0.03c-0.03-0.01-0.06-0.01-0.08-0.01
	c-0.27,0-0.54,0-0.81,0c-1.86,0-3.72,0-5.58,0v0l-1.75-0.75c-0.02-0.02-0.02-0.04-0.05-0.06c-0.04-0.02-0.09-0.03-0.1-0.04
	c-0.05-0.01-0.1-0.01-0.13-0.01c-10.05,0-20.1,0-30.15,0c-0.29,0-0.57,0-0.86,0c-0.04,0-0.07,0-0.11,0c-0.12,0-0.22,0.08-0.22,0.17
	v0.2h-1.09h-0.49v-0.29c0-0.02,0-0.04-0.01-0.06c0-0.01-0.01-0.01-0.01-0.02c-0.01-0.01-0.01-0.01-0.02-0.01c-0.02,0-0.05,0-0.07,0
	c0,0,0,0,0,0c-0.46,0-0.92,0-1.39,0c0,0,0,0,0,0c-0.02,0-0.04,0-0.06,0c-0.02,0-0.04,0.04-0.04,0.08v8.85
	c0,0.04,0.02,0.08,0.04,0.08h0.49l0,0L33.01,45.09L33.01,45.09z"/>
<path class="st0" d="M55.09,70.44h0.49c0.02,0,0.04-0.04,0.04-0.08v-0.29h0.49h1.09v0.2c0,0.1,0.1,0.17,0.22,0.17h0.11h0.86h30.15
	c0.13,0,0.23-0.05,0.28-0.11l1.75-0.75v0h5.58h0.81c0.11,0,0.2-0.06,0.2-0.14v-0.3c6.82-0.17,22.57-0.83,22.4-3.34
	c-0.17-2.5-15.65-3-22.4-3.1v-0.27c0-0.04-0.02-0.07-0.06-0.1c-0.03-0.02-0.06-0.03-0.06-0.03c-0.03-0.01-0.06-0.01-0.08-0.01
	c-0.27,0-0.54,0-0.81,0c-1.86,0-3.72,0-5.58,0v0l-1.75-0.75c-0.02-0.02-0.02-0.04-0.05-0.06c-0.04-0.02-0.09-0.03-0.1-0.04
	c-0.05-0.01-0.1-0.01-0.13-0.01c-10.05,0-20.1,0-30.15,0c-0.29,0-0.57,0-0.86,0c-0.04,0-0.07,0-0.11,0c-0.12,0-0.22,0.08-0.22,0.17
	v0.2h-1.09h-0.49v-0.29c0-0.02,0-0.04-0.01-0.06c0-0.01-0.01-0.01-0.01-0.02c-0.01-0.01-0.01-0.01-0.02-0.01c-0.02,0-0.05,0-0.07,0
	c0,0,0,0,0,0c-0.46,0-0.92,0-1.39,0c0,0,0,0,0,0c-0.02,0-0.04,0-0.06,0c-0.02,0-0.04,0.04-0.04,0.08v8.85
	c0,0.04,0.02,0.08,0.04,0.08h0.49l0,0L55.09,70.44L55.09,70.44z"/>
<path class="st0" d="M46.65,95.79h0.49c0.02,0,0.04-0.04,0.04-0.08v-0.29h0.49h1.09v0.2c0,0.1,0.1,0.17,0.22,0.17h0.11h0.86h30.15
	c0.13,0,0.23-0.05,0.28-0.11l1.75-0.75v0h5.58h0.81c0.11,0,0.2-0.06,0.2-0.14v-0.3c6.82-0.17,22.57-0.83,22.4-3.34
	c-0.17-2.5-15.65-3-22.4-3.1v-0.27c0-0.04-0.02-0.07-0.06-0.1c-0.03-0.02-0.06-0.03-0.06-0.03c-0.03-0.01-0.06-0.01-0.08-0.01
	c-0.27,0-0.54,0-0.81,0c-1.86,0-3.72,0-5.58,0v0l-1.75-0.75c-0.02-0.02-0.02-0.04-0.05-0.06c-0.04-0.02-0.09-0.03-0.1-0.04
	c-0.05-0.01-0.1-0.01-0.13-0.01c-10.05,0-20.1,0-30.15,0c-0.29,0-0.57,0-0.86,0c-0.04,0-0.07,0-0.11,0c-0.12,0-0.22,0.08-0.22,0.17
	v0.2h-1.09h-0.49v-0.29c0-0.02,0-0.04-0.01-0.06c0-0.01-0.01-0.01-0.01-0.02c-0.01-0.01-0.01-0.01-0.02-0.01c-0.02,0-0.05,0-0.07,0
	c0,0,0,0,0,0c-0.46,0-0.92,0-1.39,0c0,0,0,0,0,0c-0.02,0-0.04,0-0.06,0c-0.02,0-0.04,0.04-0.04,0.08v8.85
	c0,0.04,0.02,0.08,0.04,0.08h0.49l0,0L46.65,95.79L46.65,95.79z"/>
<path class="st1" d="M70.34,86.78c0.03,0,0.07,0,0.13,0.01c0.01,0,0.06,0.01,0.1,0.04c0.03,0.02,0.03,0.04,0.05,0.06l1.75,0.75v0
	c1.86,0,3.72,0,5.58,0c0.27,0,0.54,0,0.81,0c0.02,0,0.05,0,0.08,0.01c0.01,0,0.04,0.01,0.06,0.03c0.04,0.03,0.06,0.06,0.06,0.1v0.27
	c6.75,0.1,22.23,0.59,22.4,3.1c0.17,2.51-15.58,3.17-22.4,3.34v0.3c0,0.08-0.09,0.14-0.2,0.14h-0.81h-5.58v0l-1.75,0.75
	c-0.05,0.06-0.14,0.11-0.28,0.11H40.19h-0.86h-0.11c-0.12,0-0.22-0.08-0.22-0.17v-0.2h-1.09h-0.49v0.29c0,0.04-0.02,0.08-0.04,0.08
	H36.9l0,0h-0.54l0,0h-0.49c-0.02,0-0.04-0.04-0.04-0.08v-8.85c0-0.04,0.02-0.08,0.04-0.08c0.02,0,0.04,0,0.06,0c0,0,0,0,0,0
	c0.46,0,0.92,0,1.39,0c0,0,0,0,0,0c0.02,0,0.05,0,0.07,0c0,0,0.01,0,0.02,0.01c0,0,0.01,0.01,0.01,0.02
	c0.01,0.01,0.01,0.03,0.01,0.06v0.29h0.49h1.09v-0.2c0-0.1,0.1-0.17,0.22-0.17c0.04,0,0.07,0,0.11,0c0.29,0,0.57,0,0.86,0
	C50.24,86.78,60.29,86.78,70.34,86.78 M70.34,83.78H40.19h-0.86h-0.11c-0.18,0-0.35,0.01-0.52,0.04l-0.03-0.03l-1.28-0.01h-0.07
	l-1.39,0l-0.07,0c-1.67,0-3.04,1.38-3.04,3.08v8.85c0,1.7,1.36,3.08,3.04,3.08h0.49l0.54,0l0.49,0c0.31,0,0.61-0.05,0.9-0.14
	c0.3,0.09,0.61,0.14,0.94,0.14h0.11h0.86h30.15c0.63,0,1.23-0.17,1.75-0.48l0.9-0.39h4.96h0.81c0.62,0,1.21-0.18,1.7-0.48
	c20.03-0.59,21.96-2.72,22.91-3.75c0.71-0.77,1.06-1.75,0.99-2.75c-0.24-3.49-4.38-4.56-11.44-5.23c-4.16-0.39-8.89-0.56-12.52-0.64
	c-0.23-0.13-0.47-0.24-0.73-0.31c-0.28-0.08-0.59-0.13-0.91-0.13h-0.81h-4.96l-0.82-0.35c-0.07-0.04-0.14-0.08-0.2-0.12
	c-0.25-0.13-0.53-0.24-0.83-0.3C70.86,83.81,70.6,83.78,70.34,83.78L70.34,83.78z"/>
<g>
	<path class="st0" d="M111.12,91.15c-0.07-1.03-2.74-1.72-6.32-2.18c-0.27,0.72-0.42,1.5-0.42,2.32c0,0.75,0.13,1.47,0.36,2.15
		C108.45,92.93,111.19,92.2,111.12,91.15z"/>
	<path class="st0" d="M111.12,84.55c-1.69,0-3.23,0.63-4.42,1.66c4.58,0.73,7.22,1.98,7.41,4.74c0.07,1-0.28,1.98-0.99,2.75
		c-0.57,0.63-1.51,1.65-6.61,2.5c1.2,1.13,2.82,1.83,4.6,1.83c3.72,0,6.74-3.02,6.74-6.74S114.84,84.55,111.12,84.55z"/>
</g>
<g>
	<path class="st0" d="M119.55,65.8c-0.07-1.03-2.74-1.72-6.32-2.18c-0.27,0.72-0.42,1.5-0.42,2.32c0,0.75,0.13,1.47,0.36,2.15
		C116.88,67.58,119.63,66.85,119.55,65.8z"/>
	<path class="st0" d="M119.56,59.2c-1.69,0-3.23,0.63-4.42,1.66c4.58,0.73,7.22,1.98,7.41,4.74c0.07,1-0.28,1.98-0.99,2.75
		c-0.57,0.63-1.51,1.65-6.61,2.5c1.2,1.13,2.82,1.83,4.6,1.83c3.72,0,6.74-3.02,6.74-6.74C126.29,62.21,123.28,59.2,119.56,59.2z"/>
</g>
<path class="st0" d="M10.92,121.14h0.49c0.02,0,0.04-0.04,0.04-0.08v-0.29h0.49h1.09v0.2c0,0.1,0.1,0.17,0.22,0.17h0.11h0.86h30.15
	c0.13,0,0.23-0.05,0.28-0.11l1.75-0.75v0h5.58h0.81c0.11,0,0.2-0.06,0.2-0.14v-0.3c6.82-0.17,22.57-0.83,22.4-3.34
	c-0.17-2.5-15.65-3-22.4-3.1v-0.27c0-0.04-0.02-0.07-0.06-0.1c-0.03-0.02-0.06-0.03-0.06-0.03c-0.03-0.01-0.06-0.01-0.08-0.01
	c-0.27,0-0.54,0-0.81,0c-1.86,0-3.72,0-5.58,0v0l-1.75-0.75c-0.02-0.02-0.02-0.04-0.05-0.06c-0.04-0.02-0.09-0.03-0.1-0.04
	c-0.05-0.01-0.1-0.01-0.13-0.01c-10.05,0-20.1,0-30.15,0c-0.29,0-0.57,0-0.86,0c-0.04,0-0.07,0-0.11,0c-0.12,0-0.22,0.08-0.22,0.17
	v0.2h-1.09h-0.49v-0.29c0-0.02,0-0.04-0.01-0.06c0-0.01-0.01-0.01-0.01-0.02c-0.01-0.01-0.01-0.01-0.02-0.01c-0.02,0-0.05,0-0.07,0
	c0,0,0,0,0,0c-0.46,0-0.92,0-1.39,0c0,0,0,0,0,0c-0.02,0-0.04,0-0.06,0c-0.02,0-0.04,0.04-0.04,0.08v8.85
	c0,0.04,0.02,0.08,0.04,0.08h0.49l0,0L10.92,121.14L10.92,121.14z"/>
<g>
	<path class="st0" d="M48.95,24.68c-7.76,0.14-15.51,0.26-23.27,0.35c-3.88,0.05-7.76,0.17-11.64,0.1
		c-3.88-0.09-7.76-0.16-11.64-0.45v-0.1c3.88-0.29,7.76-0.36,11.64-0.45c3.88-0.07,7.76,0.05,11.64,0.1
		c7.76,0.09,15.51,0.21,23.27,0.35V24.68z"/>
</g>
<g>
	<path class="st0" d="M62.08,48.41l-25.22,0.35c-4.2,0.05-8.41,0.17-12.61,0.1c-4.2-0.09-8.41-0.16-12.61-0.45v-0.1
		c4.2-0.29,8.41-0.36,12.61-0.45c4.2-0.07,8.41,0.05,12.61,0.1l25.22,0.35V48.41z"/>
</g>
<g>
	<path class="st0" d="M78.3,73.93c-5.95,0.14-11.89,0.26-17.84,0.35c-2.97,0.05-5.95,0.17-8.92,0.1c-2.97-0.09-5.95-0.16-8.92-0.45
		v-0.1c2.97-0.29,5.95-0.36,8.92-0.45c2.97-0.07,5.95,0.05,8.92,0.1c5.95,0.09,11.89,0.21,17.84,0.35V73.93z"/>
</g>
<g>
	<path class="st0" d="M65.04,83.82c-5.87,0.14-11.74,0.26-17.6,0.35c-2.93,0.05-5.87,0.17-8.8,0.1c-2.93-0.09-5.87-0.16-8.8-0.45
		v-0.1c2.93-0.29,5.87-0.36,8.8-0.45c2.93-0.07,5.87,0.05,8.8,0.1c5.87,0.09,11.74,0.21,17.6,0.35V83.82z"/>
</g>
<g>
	<path class="st0" d="M27.06,109.34c-4.11,0.14-8.22,0.26-12.33,0.35c-2.05,0.05-4.11,0.17-6.16,0.1c-2.05-0.07-4.11-0.18-6.16-0.45
		v-0.1c2.05-0.27,4.11-0.38,6.16-0.45c2.05-0.07,4.11,0.05,6.16,0.1c4.11,0.09,8.22,0.21,12.33,0.35V109.34z"/>
</g>
<g>
	<path class="st0" d="M57.13,58.5c-3.89,0.14-7.78,0.26-11.67,0.35c-1.95,0.05-3.89,0.17-5.84,0.1c-1.95-0.07-3.89-0.18-5.84-0.45
		v-0.1c1.95-0.27,3.89-0.38,5.84-0.45c1.95-0.07,3.89,0.05,5.84,0.1c3.89,0.09,7.78,0.21,11.67,0.35V58.5z"/>
</g>
</svg>
