<?xml version="1.0" encoding="utf-8"?>
<!-- Generator: Adobe Illustrator 23.0.6, SVG Export Plug-In . SVG Version: 6.00 Build 0)  -->
<svg version="1.1" id="Слой_1" xmlns="http://www.w3.org/2000/svg" xmlns:xlink="http://www.w3.org/1999/xlink" x="0px" y="0px"
	 viewBox="0 0 128 128" style="enable-background:new 0 0 128 128;" xml:space="preserve">
<style type="text/css">
	.st0{display:none;fill:#D24A43;}
	.st1{fill:#232323;}
</style>
<path class="st0" d="M70.34,86.78c0.03,0,0.07,0,0.13,0.01c0.01,0,0.06,0.01,0.1,0.04c0.03,0.02,0.03,0.04,0.05,0.06l1.75,0.75v0
	c1.86,0,3.72,0,5.58,0c0.27,0,0.54,0,0.81,0c0.02,0,0.05,0,0.08,0.01c0.01,0,0.04,0.01,0.06,0.03c0.04,0.03,0.06,0.06,0.06,0.1v0.27
	c6.75,0.1,22.23,0.59,22.4,3.1c0.17,2.51-15.58,3.17-22.4,3.34v0.3c0,0.08-0.09,0.14-0.2,0.14h-0.81h-5.58v0l-1.75,0.75
	c-0.05,0.06-0.14,0.11-0.28,0.11H40.19h-0.86h-0.11c-0.12,0-0.22-0.08-0.22-0.17v-0.2h-1.09h-0.49v0.29c0,0.04-0.02,0.08-0.04,0.08
	H36.9l0,0h-0.54l0,0h-0.49c-0.02,0-0.04-0.04-0.04-0.08v-8.85c0-0.04,0.02-0.08,0.04-0.08c0.02,0,0.04,0,0.06,0c0,0,0,0,0,0
	c0.46,0,0.92,0,1.39,0c0,0,0,0,0,0c0.02,0,0.05,0,0.07,0c0,0,0.01,0,0.02,0.01c0,0,0.01,0.01,0.01,0.02
	c0.01,0.01,0.01,0.03,0.01,0.06v0.29h0.49h1.09v-0.2c0-0.1,0.1-0.17,0.22-0.17c0.04,0,0.07,0,0.11,0c0.29,0,0.57,0,0.86,0
	C50.24,86.78,60.29,86.78,70.34,86.78 M70.34,83.78H40.19h-0.86h-0.11c-0.18,0-0.35,0.01-0.52,0.04l-0.03-0.03l-1.28-0.01h-0.07
	l-1.39,0l-0.07,0c-1.67,0-3.04,1.38-3.04,3.08v8.85c0,1.7,1.36,3.08,3.04,3.08h0.49l0.54,0l0.49,0c0.31,0,0.61-0.05,0.9-0.14
	c0.3,0.09,0.61,0.14,0.94,0.14h0.11h0.86h30.15c0.63,0,1.23-0.17,1.75-0.48l0.9-0.39h4.96h0.81c0.62,0,1.21-0.18,1.7-0.48
	c20.03-0.59,21.96-2.72,22.91-3.75c0.71-0.77,1.06-1.75,0.99-2.75c-0.24-3.49-4.38-4.56-11.44-5.23c-4.16-0.39-8.89-0.56-12.52-0.64
	c-0.23-0.13-0.47-0.24-0.73-0.31c-0.28-0.08-0.59-0.13-0.91-0.13h-0.81h-4.96l-0.82-0.35c-0.07-0.04-0.14-0.08-0.2-0.12
	c-0.25-0.13-0.53-0.24-0.83-0.3C70.86,83.81,70.6,83.78,70.34,83.78L70.34,83.78z"/>
<polygon class="st1" points="121.17,65.14 55.9,77.89 10.51,48.95 "/>
<polygon class="st1" points="110.27,53.7 60.03,43.81 30.96,12.96 "/>
<polygon class="st1" points="111.2,80.92 58.98,86.26 24.43,118.4 "/>
<g>
	<path class="st1" d="M33.4,22.58c3.92,4.28,7.78,8.6,11.61,12.95c3.86,4.32,7.62,8.74,11.44,13.1l0.8,0.92l-1.22-0.13
		c-3.52-0.37-7.03-0.79-10.55-1.2l-10.54-1.24c-7.02-0.88-14.05-1.76-21.05-2.78c7.06,0.56,14.1,1.27,21.14,1.96l10.56,1.13
		c3.52,0.38,7.04,0.75,10.55,1.17l-0.42,0.79c-3.75-4.42-7.55-8.8-11.25-13.27C40.74,31.56,37.04,27.1,33.4,22.58z"/>
</g>
<g>
	<path class="st1" d="M13.88,57.92c3.25,1.87,6.46,3.79,9.69,5.68l9.64,5.78l9.59,5.85c3.19,1.96,6.4,3.89,9.57,5.88l0.52,0.33
		l-0.42,0.43c-4.65,4.74-9.25,9.52-13.94,14.22c-4.67,4.72-9.36,9.42-14.11,14.05c4.48-4.9,9.02-9.74,13.58-14.56
		c4.54-4.84,9.18-9.59,13.76-14.39l0.09,0.76c-3.2-1.95-6.36-3.95-9.55-5.92l-9.53-5.95l-9.48-6.02C20.16,62,17,59.99,13.88,57.92z"
		/>
</g>
</svg>
